<svg id="Layer_2" data-name="Layer 2" xmlns="http://www.w3.org/2000/svg" viewBox="0 0 100 100"><defs><style>.cls-1{fill:#fff}.cls-2{fill:#545554}</style></defs><title>Artboard 22</title><path class="cls-1" d="M16.59 23.21l-.47 8.27 7.05.14 20.62 59.65h12.5l21.28-59.65 6.9-.62s1.1-8.33.66-8.33L56 22.88l.11 7.75 9.32.41L50.7 67.92l-14.59-35.8s9.21-.16 9.1-.49.44-9 .44-9z"/><path class="cls-2" d="M16.17 24h28.72v-2h-.52a1 1 0 0 0 0 2h.52a1 1 0 0 0 0-2H16.17a1 1 0 0 0 0 2z"/><path class="cls-2" d="M44.48 22.84v8.65a1 1 0 0 0 2 0v-8.65a1 1 0 0 0-2 0z"/><path class="cls-2" d="M45.56 30.61h-9.33a1 1 0 0 0 0 2h.22a1 1 0 0 0 0-2h-.22a1 1 0 0 0 0 2h9.33a1 1 0 0 0 0-2zm19.84-.38h-8.82a1 1 0 0 0 0 2h.27a1 1 0 0 0 0-2h-.27a1 1 0 0 0 0 2h8.82a1 1 0 0 0 0-2z"/><path class="cls-2" d="M57.14 31.13v-8.39a1 1 0 0 0-2 0v8.39a1 1 0 0 0 2 0z"/><path class="cls-2" d="M56.45 23.73h28.4a1 1 0 0 0 0-2h-28.4a1 1 0 0 0 0 2z"/><path class="cls-2" d="M83.85 23.26v7.52h2v-.18a1 1 0 0 0-2 0v.17a1 1 0 0 0 2 0v-7.51a1 1 0 0 0-2 0z"/><path class="cls-2" d="M84.8 30h-7.54a1 1 0 0 0 0 2h.24a1 1 0 0 0 0-2h-.24a1 1 0 0 0 0 2h7.54a1 1 0 0 0 0-2zM15 23v8.48a1 1 0 0 0 2 0V23a1 1 0 0 0-2 0z"/><path class="cls-2" d="M16.2 32.51h7a1 1 0 0 0 0-2H23a1 1 0 0 0 0 2h.2v-2h-7a1 1 0 0 0 0 2zm-.52-8.63c2.13 1.65 4.42 3.06 6.7 4.5 1.09.69 2.1-1 1-1.73-2.13-1.35-4.31-2.64-6.3-4.19-1-.78-2.43.62-1.41 1.41z"/><path class="cls-2" d="M17.33 31.79c2-1.08 4.27-1.77 6.13-3.17 1-.77 0-2.5-1-1.73-1.85 1.4-4.09 2.09-6.13 3.17-1.14.6-.13 2.33 1 1.73z"/><path class="cls-2" d="M23.31 28.62h15.14a1 1 0 0 0 0-2H23.31a1 1 0 0 0 0 2z"/><path class="cls-2" d="M44.51 22.56a60.68 60.68 0 0 0-6.53 4c-1.06.72-.06 2.45 1 1.73a60.68 60.68 0 0 1 6.53-4c1.15-.58.14-2.31-1-1.73z"/><path class="cls-2" d="M38.21 28.71a53.82 53.82 0 0 0 6.52 3c1.23.4 1.75-1.53.53-1.93a50 50 0 0 1-6-2.81c-1.15-.56-2.17 1.17-1 1.73zm17.12-4.93A7 7 0 0 0 58 25.64a21.06 21.06 0 0 1 3.67 1.87c1 .8 2.42-.61 1.41-1.41a13.55 13.55 0 0 0-3.13-1.77 11.94 11.94 0 0 1-1.63-.82 7.47 7.47 0 0 1-1.23-.75c-.7-1.07-2.43-.07-1.73 1z"/><path class="cls-2" d="M57.06 31.48c1-.6 2-1.27 3.1-1.83a10.33 10.33 0 0 0 1.2-.73c.47-.34 1-.51 1.49-.84 1-.73.05-2.46-1-1.73-.43.3-.93.4-1.36.69a13.45 13.45 0 0 1-1.32.88c-1.05.55-2.07 1.23-3.1 1.83a1 1 0 0 0 1 1.73z"/><path class="cls-2" d="M62.88 28.22h14.64a1 1 0 0 0 0-2H62.88a1 1 0 0 0 0 2z"/><path class="cls-2" d="M77.6 28.18c1.31-.48 2.31-1.51 3.55-2.12.59-.29 1.05-.76 1.63-1.07a15.66 15.66 0 0 0 1.93-1c1-.76 0-2.49-1-1.73a9.93 9.93 0 0 1-1.6.84c-.62.3-1.07.72-1.66 1.06a15.33 15.33 0 0 0-1.4.73 8.71 8.71 0 0 1-2 1.34c-1.2.44-.68 2.37.53 1.93z"/><path class="cls-2" d="M77 28.21a49 49 0 0 1 6.89 3.39c1.09.69 2.09-1 1-1.73A49 49 0 0 0 78 26.49c-1.17-.51-2.19 1.21-1 1.73zm-41.65 4.05c.44 1.21 1.1 2.3 1.59 3.49.61 1.48 1 3 1.48 4.55 1.11 3.27 2.64 6.37 3.93 9.57 2.47 6.16 4.53 12.45 7.36 18.46.55 1.16 2.27.15 1.73-1-2.88-6.12-4.91-12.57-7.49-18.81-1.26-3.05-2.71-6-3.74-9.17-.41-1.25-.71-2.53-1.18-3.76s-1.28-2.59-1.76-3.86-2.37-.68-1.93.53z"/><path class="cls-2" d="M64.26 31.53c-.19 2.72-2 5.85-3 8.37q-1.84 4.7-3.77 9.37c-2.54 6.13-5.15 12.22-7.64 18.37-.48 1.19 1.45 1.71 1.93.53 2.61-6.45 5.36-12.84 8-19.27q1.91-4.63 3.73-9.31c1-2.49 2.58-5.39 2.77-8.07.09-1.28-1.91-1.28-2 0zm11.9-.73c-6.11 20.36-14.08 40.09-21.37 60-.44 1.21 1.49 1.73 1.93.53C64 71.42 72 51.7 78.09 31.33a1 1 0 0 0-1.93-.53zm-53.77.98c2.67 10.44 6.39 20.55 10 30.69 1.8 5.08 3.48 10.19 5.14 15.31 1.51 4.67 2.94 9.48 5.39 13.76a1 1 0 0 0 1.73-1c-2.51-4.39-4-9.39-5.47-14.2-1.6-5.14-3.37-10.22-5.17-15.28-3.49-9.85-7.07-19.67-9.66-29.81a1 1 0 0 0-1.93.53zM57.8 61.8a2.49 2.49 0 0 0-.54 4.26 3.76 3.76 0 0 0 2.59.56 3 3 0 0 0 2.3-1.17 2.45 2.45 0 0 0 .85-2.21 2.58 2.58 0 0 0-1.52-1.94c-1.28-.56-4-.58-4.36 1.21-.25 1.26 1.68 1.8 1.93.53 0 .12.3-.06.47-.08a2.31 2.31 0 0 1 1 .09c.72.24.61.63.2 1.09a1.61 1.61 0 0 1-1.63.48c-.32 0-.67 0-.75-.45 0-.22.23-.51.05-.44 1.17-.48.66-2.42-.53-1.93zm-2.57 9.37c-2.11 4.4-3.72 9.11-6.1 13.36-.63 1.12 1.1 2.13 1.73 1 2.38-4.26 4-9 6.1-13.36.56-1.15-1.17-2.17-1.73-1z"/><path class="cls-2" d="M28.59 32c3.41 9.41 6.51 18.88 9.83 28.27 3.06 8.65 6.9 16.86 10.58 25.27.51 1.18 2.23.16 1.73-1C47 76 43.14 67.65 40 58.88c-3.21-9.11-6.24-18.29-9.53-27.38-.43-1.2-2.37-.68-1.93.53zM70 31.2c-2.43 7.59-4.68 15.25-7.68 22.64-.48 1.19 1.45 1.71 1.93.53 3-7.39 5.25-15 7.68-22.64.41-1.23-1.52-1.73-1.93-.53z"/><path class="cls-2" d="M69.55 52.25c-2.29.4-4.49 1.24-6.74 1.74l1 .26c-.79-.89-1.67-1.52-2.42-2.47a29.52 29.52 0 0 0-2-2.69 1 1 0 0 0-1-.26h-.08c-1.18.47-.66 2.41.53 1.93h.08l-1-.26c.82.82 1.48 2.09 2.22 3s1.52 1.38 2.2 2.16a1 1 0 0 0 1 .26c2.26-.5 4.45-1.34 6.74-1.74 1.27-.22.73-2.15-.53-1.93z"/><path class="cls-2" d="M68.07 55.65c-2.28.5-4.51.89-6.75 1.57l1 .26c-1.59-1.41-2.86-3.66-4.05-5.41-.72-1.06-2.46-.06-1.73 1 .83 1.22 1.7 2.44 2.6 3.61.49.64 1.13 1.9 1.87 2.28.93.48 2.09-.19 3-.44 1.51-.39 3.05-.61 4.58-1 1.26-.28.72-2.21-.53-1.93zM44 93h11.71a1 1 0 0 0 0-2H44a1 1 0 0 0 0 2z"/></svg>