<?xml version="1.0" standalone="no"?><!DOCTYPE svg PUBLIC "-//W3C//DTD SVG 1.1//EN" "http://www.w3.org/Graphics/SVG/1.1/DTD/svg11.dtd"><svg class="icon" height="512" viewBox="0 0 1024 1024" version="1.1" xmlns="http://www.w3.org/2000/svg"><path d="M541.501 695.311V535.702h160.592V500.49H541.501V340.887h-34.884v159.605H346.026v35.212h160.591v159.607zM430.353 737.336H284.129V592.012H252.37v145.325H106.144v32.06H252.37v145.327h31.759V769.397h146.224zM792.588 605.072h-29.187v133.564H629.01v29.466h134.391v133.564h29.187V768.102h134.391v-29.466H792.588zM763.401 290.273v133.565h29.189V290.273h134.389v-29.465H792.59V127.243h-29.191v133.565H629.012v29.465zM253.654 423.838h29.191V290.273h134.388v-29.465H282.845V127.243h-29.191v133.565h-134.39v29.465h134.39zM507.778 246.254h21.628V147.29h99.574v-21.832h-99.574V26.495h-21.628v98.963h-99.575v21.832h99.575zM534.872 791.788h-21.627v98.965H413.67v21.831h99.575v98.963h21.627v-98.963h99.577v-21.831h-99.577zM108.447 627.978h21.628v-98.963h99.577v-21.831h-99.577v-98.965h-21.628v98.965H8.873v21.831h99.574zM921.271 507.184v-98.965h-21.633v98.965h-99.574v21.831h99.574v98.963h21.633v-98.963h99.573v-21.831z" /></svg>